<?xml version="1.0" encoding="utf-8"?>
<svg version="1.1" xmlns:xlink="http://www.w3.org/1999/xlink" width="40px" height="43px" xmlns="http://www.w3.org/2000/svg">
  <g transform="matrix(1 0 0 1 -1493 -404 )">
    <path d="M 3.076923076923077 33.01785714285714  L 3.076923076923077 39.92857142857143  L 10 39.92857142857143  L 10 33.01785714285714  L 3.076923076923077 33.01785714285714  Z M 11.538461538461537 33.01785714285714  L 11.538461538461537 39.92857142857143  L 19.23076923076923 39.92857142857143  L 19.23076923076923 33.01785714285714  L 11.538461538461537 33.01785714285714  Z M 3.076923076923077 23.80357142857143  L 3.076923076923077 31.48214285714286  L 10 31.48214285714286  L 10 23.80357142857143  L 3.076923076923077 23.80357142857143  Z M 11.538461538461537 23.80357142857143  L 11.538461538461537 31.48214285714286  L 19.23076923076923 31.48214285714286  L 19.23076923076923 23.80357142857143  L 11.538461538461537 23.80357142857143  Z M 3.076923076923077 15.357142857142856  L 3.076923076923077 22.26785714285714  L 10 22.26785714285714  L 10 15.357142857142856  L 3.076923076923077 15.357142857142856  Z M 20.76923076923077 33.01785714285714  L 20.76923076923077 39.92857142857143  L 28.461538461538463 39.92857142857143  L 28.461538461538463 33.01785714285714  L 20.76923076923077 33.01785714285714  Z M 11.538461538461537 15.357142857142856  L 11.538461538461537 22.26785714285714  L 19.23076923076923 22.26785714285714  L 19.23076923076923 15.357142857142856  L 11.538461538461537 15.357142857142856  Z M 30 33.01785714285714  L 30 39.92857142857143  L 36.92307692307693 39.92857142857143  L 36.92307692307693 33.01785714285714  L 30 33.01785714285714  Z M 20.76923076923077 23.80357142857143  L 20.76923076923077 31.48214285714286  L 28.461538461538463 31.48214285714286  L 28.461538461538463 23.80357142857143  L 20.76923076923077 23.80357142857143  Z M 12.079326923076923 11.28989955357143  C 12.231570512820513 11.13792782738095  12.307692307692308 10.957961309523805  12.307692307692308 10.75  L 12.307692307692308 3.839285714285715  C 12.307692307692308 3.631324404761905  12.231570512820513 3.45135788690476  12.079326923076923 3.299386160714285  C 11.927083333333336 3.1474144345238053  11.746794871794872 3.0714285714285703  11.538461538461537 3.0714285714285703  L 10 3.0714285714285703  C 9.791666666666668 3.0714285714285703  9.611378205128206 3.1474144345238053  9.459134615384615 3.299386160714285  C 9.306891025641024 3.45135788690476  9.230769230769232 3.631324404761905  9.230769230769232 3.839285714285715  L 9.230769230769232 10.75  C 9.230769230769232 10.957961309523805  9.306891025641024 11.13792782738095  9.459134615384615 11.28989955357143  C 9.611378205128206 11.441871279761905  9.791666666666668 11.517857142857144  10 11.517857142857144  L 11.538461538461537 11.517857142857144  C 11.746794871794872 11.517857142857144  11.927083333333336 11.441871279761905  12.079326923076923 11.28989955357143  Z M 30 23.80357142857143  L 30 31.48214285714286  L 36.92307692307693 31.48214285714286  L 36.92307692307693 23.80357142857143  L 30 23.80357142857143  Z M 20.76923076923077 15.357142857142856  L 20.76923076923077 22.26785714285714  L 28.461538461538463 22.26785714285714  L 28.461538461538463 15.357142857142856  L 20.76923076923077 15.357142857142856  Z M 30 15.357142857142856  L 30 22.26785714285714  L 36.92307692307693 22.26785714285714  L 36.92307692307693 15.357142857142856  L 30 15.357142857142856  Z M 30.540865384615383 11.28989955357143  C 30.693108974358978 11.13792782738095  30.76923076923077 10.957961309523805  30.76923076923077 10.75  L 30.76923076923077 3.839285714285715  C 30.76923076923077 3.631324404761905  30.693108974358978 3.45135788690476  30.540865384615383 3.299386160714285  C 30.388621794871796 3.1474144345238053  30.208333333333336 3.0714285714285703  30 3.0714285714285703  L 28.461538461538463 3.0714285714285703  C 28.25320512820513 3.0714285714285703  28.07291666666667 3.1474144345238053  27.920673076923073 3.299386160714285  C 27.76842948717949 3.45135788690476  27.692307692307693 3.631324404761905  27.692307692307693 3.839285714285715  L 27.692307692307693 10.75  C 27.692307692307693 10.957961309523805  27.76842948717949 11.13792782738095  27.920673076923073 11.28989955357143  C 28.07291666666667 11.441871279761905  28.25320512820513 11.517857142857144  28.461538461538463 11.517857142857144  L 30 11.517857142857144  C 30.208333333333336 11.517857142857144  30.388621794871796 11.441871279761905  30.540865384615383 11.28989955357143  Z M 39.08653846153846 7.0546875  C 39.695512820512825 7.662574404761905  40 8.382440476190474  40 9.214285714285715  L 40 39.92857142857143  C 40 40.76041666666667  39.695512820512825 41.48028273809524  39.08653846153846 42.088169642857146  C 38.4775641025641 42.696056547619044  37.75641025641026 43  36.92307692307693 43  L 3.076923076923077 43  C 2.243589743589744 43  1.5224358974358976 42.696056547619044  0.9134615384615384 42.088169642857146  C 0.30448717948717946 41.48028273809524  0 40.76041666666667  0 39.92857142857143  L 0 9.214285714285715  C 0 8.382440476190474  0.30448717948717946 7.662574404761905  0.9134615384615384 7.0546875  C 1.5224358974358976 6.4468005952380905  2.243589743589744 6.142857142857145  3.076923076923077 6.142857142857145  L 6.153846153846154 6.142857142857145  L 6.153846153846154 3.839285714285715  C 6.153846153846154 2.783482142857145  6.530448717948718 1.8796502976190452  7.283653846153846 1.12779017857143  C 8.036858974358976 0.37593005952381  8.942307692307693 0  10 0  L 11.538461538461537 0  C 12.596153846153847 0  13.501602564102566 0.37593005952381  14.254807692307692 1.12779017857143  C 15.008012820512821 1.8796502976190452  15.384615384615385 2.783482142857145  15.384615384615385 3.839285714285715  L 15.384615384615385 6.142857142857145  L 24.615384615384617 6.142857142857145  L 24.615384615384617 3.839285714285715  C 24.615384615384617 2.783482142857145  24.991987179487182 1.8796502976190452  25.745192307692307 1.12779017857143  C 26.49839743589744 0.37593005952381  27.403846153846153 0  28.461538461538463 0  L 30 0  C 31.057692307692307 0  31.963141025641026 0.37593005952381  32.71634615384615 1.12779017857143  C 33.469551282051285 1.8796502976190452  33.84615384615385 2.783482142857145  33.84615384615385 3.839285714285715  L 33.84615384615385 6.142857142857145  L 36.92307692307693 6.142857142857145  C 37.75641025641026 6.142857142857145  38.4775641025641 6.4468005952380905  39.08653846153846 7.0546875  Z " fill-rule="nonzero" fill="#95cac7" stroke="none" transform="matrix(1 0 0 1 1493 404 )" />
  </g>
</svg>