<?xml version="1.0" encoding="utf-8"?>
<svg version="1.1" xmlns:xlink="http://www.w3.org/1999/xlink" width="25px" height="25px" xmlns="http://www.w3.org/2000/svg">
  <g transform="matrix(1 0 0 1 -37 -496 )">
    <path d="M 23.998149671052634 17.92516447368421  C 25.319284539473685 16.337582236842106  24.875000000000004 15.92783717105263  24.050575657894736 15.09621710526316  C 23.40912828947369 14.449424342105264  22.885485197368425 13.883840460526315  21.26274671052632 15.167146381578947  L 23.998149671052634 17.92516447368421  Z M 20.451480263157894 15.877878289473685  C 20.312088815789476 16.010279605263158  20.167351973684212 16.15213815789474  20.014185855263158 16.305715460526315  C 19.985197368421055 16.335320723684212  15.728207236842104 20.628083881578945  15.728207236842104 20.628083881578945  C 15.12417763157895 21.199629934210527  14.120476973684209 24.410361842105267  14.467105263157896 24.760279605263154  C 14.813733552631577 25.109375  17.96566611842105 24.16879111842106  18.54975328947368 23.502467105263154  C 18.54975328947368 23.502467105263154  22.81661184210526 19.20024671052632  22.85074013157895 19.166118421052634  C 23.00287828947368 19.01233552631579  23.144736842105264 18.86636513157895  23.277138157894733 18.727384868421055  L 20.451480263157894 15.877878289473685  Z M 0.6443256578947368 8.974300986842106  C 0.636513157894737 8.973478618421053  0.6299342105263155 8.96998355263158  0.6223273026315791 8.96998355263158  C 0.6145148026315793 8.96998355263158  0.6079358552631577 8.973684210526315  0.6005345394736844 8.974300986842106  L 0.6443256578947368 8.974300986842106  Z M 0.4599095394736843 9.352384868421053  C 0.4611430921052627 9.353824013157892  0.4617598684210528 9.355468750000002  0.4629934210526318 9.356496710526315  L 0.4599095394736843 9.352384868421053  Z M 7.228412828947368 8.799342105263158  C 7.228412828947368 10.839638157894738  8.850740131578947 12.5  10.843955592105262 12.5  C 10.84518914473684 12.5  10.84642269736842 12.499794407894738  10.847861842105262 12.499794407894738  C 10.849095394736844 12.499794407894738  10.850534539473685 12.5  10.851768092105262 12.5  C 12.844983552631579 12.5  14.467310855263158 10.839638157894738  14.467310855263158 8.799342105263158  L 14.467310855263158 6.332236842105263  C 14.467310855263158 4.291940789473684  12.844983552631579 2.631578947368421  10.851768092105262 2.631578947368421  C 10.850534539473685 2.631578947368421  10.849095394736844 2.631784539473685  10.847861842105262 2.631784539473685  C 10.84642269736842 2.631784539473685  10.84518914473684 2.631578947368421  10.843955592105262 2.631578947368421  C 8.850740131578947 2.631578947368421  7.228412828947368 4.291940789473684  7.228412828947368 6.332236842105263  L 7.228412828947368 8.799342105263158  Z M 12.61019736842105 15.111636513157897  C 12.111225328947368 15.017475328947368  11.599712171052632 14.967105263157892  11.079769736842104 14.967105263157892  C 11.001850328947368 14.967105263157892  10.925164473684209 14.973067434210527  10.847861842105262 14.975945723684209  C 10.770559210526317 14.973067434210527  10.693873355263158 14.967105263157892  10.615953947368421 14.967105263157892  C 10.096011513157894 14.967105263157892  9.584292763157894 15.017475328947366  9.085731907894736 15.11143092105263  C 6.135690789473684 15.667763157894735  3.644325657894737 17.80489309210526  2.639802631578947 20.777138157894733  C 2.51891447368421 21.13260690789474  2.576891447368421 21.517475328947366  2.797697368421052 21.834498355263158  C 3.0333059210526305 22.174753289473685  3.3996710526315788 22.368626644736842  3.801809210526315 22.368626644736842  L 9.03844572368421 22.368626644736842  L 12.657483552631577 22.368626644736842  L 12.681743421052627 22.368626644736842  C 12.976973684210522 21.589226973684212  13.308182565789469 20.915501644736846  13.576069078947366 20.661800986842106  C 13.576069078947366 20.661800986842106  15.375822368421046 18.84683388157895  16.87787828947368 17.33223684210526  C 15.705592105263156 16.199424342105264  14.227796052631575 15.416735197368423  12.61019736842105 15.111636513157897  Z M 10.847861842105262 0.1644736842105263  C 12.608552631578949 0.1657072368421053  14.198396381578949 0.9494243421052633  15.30222039473684 2.19202302631579  C 14.198396381578949 0.9492187499999997  12.608552631578949 0.1657072368421053  10.847861842105262 0.1644736842105263  Z M 12.681743421052632 22.36842105263158  L 12.657483552631577 22.36842105263158  L 9.03844572368421 22.36842105263158  L 3.8016036184210518 22.36842105263158  C 3.3994654605263164 22.36842105263158  3.0333059210526323 22.174753289473685  2.7974917763157894 21.834292763157894  C 2.5766858552631575 21.517269736842106  2.518708881578947 21.132401315789476  2.6395970394736836 20.776932565789473  C 3.6439144736842106 17.8046875  6.135485197368421 15.667557565789478  9.085526315789473 15.111225328947366  C 9.584292763157896 15.017475328947368  10.096011513157896 14.967105263157892  10.615953947368421 14.967105263157892  C 10.693873355263158 14.967105263157892  10.770559210526313 14.973067434210527  10.847861842105262 14.975945723684209  C 10.925164473684209 14.973067434210527  11.001850328947368 14.967105263157892  11.079769736842104 14.967105263157892  C 11.599712171052632 14.967105263157892  12.111430921052632 15.017475328947366  12.609991776315788 15.11143092105263  C 14.227590460526315 15.416324013157896  15.705386513157894 16.199218749999996  16.877672697368425 17.33203125  C 17.59375 16.609786184210524  18.24013157894737 15.95785361842105  18.593133223684212 15.601973684210524  C 17.557771381578945 14.587582236842103  16.334909539473685 13.78597861842105  14.991365131578949 13.253700657894735  C 16.147203947368425 12.127467105263156  16.878906250000004 10.551192434210522  16.878906250000004 8.799342105263156  L 16.878906249999996 6.332236842105263  C 16.878906249999996 2.939967105263158  14.166118421052632 0.1644736842105263  10.851768092105262 0.1644736842105263  C 10.850534539473685 0.1644736842105263  10.849095394736844 0.1644736842105263  10.847861842105262 0.1644736842105263  C 12.608552631578949 0.16550164473684234  14.198190789473685 0.9492187499999997  15.30222039473684 2.19202302631579  C 14.198396381578949 0.9494243421052633  12.608552631578949 0.1657072368421053  10.847861842105262 0.1644736842105263  C 10.846628289473683 0.1644736842105263  10.84518914473684 0.1644736842105263  10.843955592105262 0.1644736842105263  C 7.529605263157895 0.1644736842105263  4.8168174342105265 2.939967105263158  4.8168174342105265 6.332236842105263  L 4.8168174342105265 8.799342105263158  C 4.8168174342105265 10.551192434210527  5.548314144736843 12.127467105263158  6.704152960526316 13.253700657894738  C 3.7870065789473695 14.409539473684212  1.4257812500000004 16.82236842105263  0.36122532894736886 19.970394736842103  C -0.01747532894736772 21.089226973684212  0.15522203947368501 22.290707236842106  0.8324424342105272 23.265213815789476  C 1.5172697368421055 24.248560855263154  2.626233552631579 24.835526315789476  3.8016036184210518 24.835526315789476  L 6.558799342105264 24.835526315789476  L 11.983552631578945 24.835526315789476  C 12.095189144736839 24.14453125  12.36780427631579 23.197368421052637  12.681743421052632 22.36842105263158  Z M 15.839226973684209 2.891036184210526  C 15.947779605263158 3.05530427631579  16.04872532894737 3.224917763157895  16.14185855263158 3.3996710526315788  C 16.04872532894737 3.224917763157895  15.947779605263158 3.05530427631579  15.839226973684209 2.891036184210526  Z M 7.228412828947368 8.799342105263158  L 7.228412828947368 6.332236842105263  C 7.228412828947368 4.291940789473684  8.850740131578947 2.631578947368421  10.843955592105262 2.631578947368421  C 10.84518914473684 2.631578947368421  10.84642269736842 2.631784539473685  10.847861842105262 2.631784539473685  C 10.849095394736844 2.631784539473685  10.850534539473685 2.631578947368421  10.851768092105262 2.631578947368421  C 12.844983552631579 2.631578947368421  14.467310855263158 4.291940789473684  14.467310855263158 6.332236842105263  L 14.467310855263158 8.799342105263158  C 14.467310855263158 10.839432565789474  12.844983552631579 12.5  10.851768092105262 12.5  C 10.850534539473685 12.5  10.849095394736844 12.499794407894738  10.847861842105262 12.499794407894738  C 10.84642269736842 12.499794407894738  10.84518914473684 12.5  10.843955592105262 12.5  C 8.850740131578947 12.5  7.228412828947368 10.839638157894738  7.228412828947368 8.799342105263158  Z " fill-rule="nonzero" fill="#e6eaf2" stroke="none" transform="matrix(1 0 0 1 37 496 )" />
  </g>
</svg>