<?xml version="1.0" encoding="utf-8"?>
<svg version="1.1" xmlns:xlink="http://www.w3.org/1999/xlink" width="30px" height="30px" xmlns="http://www.w3.org/2000/svg">
  <g transform="matrix(1 0 0 1 -1355 -580 )">
    <path d="M 29.62890625 24.4453125  C 29.876302083333332 24.742187500000004  30 25.093750000000004  30 25.5  L 30 28.5  C 30 28.90625  29.876302083333332 29.2578125  29.62890625 29.5546875  C 29.38151041666667 29.8515625  29.08854166666667 30  28.75 30  L 1.25 30  C 0.9114583333333335 30  0.6184895833333334 29.8515625  0.37109375 29.5546875  C 0.12369791666666667 29.2578125  0 28.90625  0 28.5  L 0 25.5  C 0 25.093750000000004  0.12369791666666667 24.742187500000004  0.37109375 24.4453125  C 0.6184895833333334 24.1484375  0.9114583333333335 24  1.25 24  L 28.75 24  C 29.08854166666667 24  29.38151041666667 24.1484375  29.62890625 24.4453125  Z M 29.62890625 12.445312499999998  C 29.876302083333332 12.742187499999998  30 13.093749999999998  30 13.499999999999998  L 30 16.5  C 30 16.90625  29.876302083333332 17.2578125  29.62890625 17.5546875  C 29.38151041666667 17.851562499999996  29.08854166666667 18  28.75 18  L 1.25 18  C 0.9114583333333335 18  0.6184895833333334 17.851562499999996  0.37109375 17.5546875  C 0.12369791666666667 17.2578125  0 16.90625  0 16.5  L 0 13.499999999999998  C 0 13.093749999999998  0.12369791666666667 12.742187499999998  0.37109375 12.445312499999998  C 0.6184895833333334 12.148437500000002  0.9114583333333335 12  1.25 12  L 28.75 12  C 29.08854166666667 12  29.38151041666667 12.148437500000002  29.62890625 12.445312499999998  Z M 29.62890625 0.44531250000000133  C 29.876302083333332 0.7421874999999978  30 1.0937499999999978  30 1.5000000000000013  L 30 4.500000000000001  C 30 4.906249999999997  29.876302083333332 5.257812499999997  29.62890625 5.554687500000001  C 29.38151041666667 5.851562499999997  29.08854166666667 5.999999999999998  28.75 6  L 1.25 6  C 0.9114583333333335 5.999999999999998  0.6184895833333334 5.851562499999997  0.37109375 5.554687500000001  C 0.12369791666666667 5.257812499999997  0 4.906249999999997  0 4.500000000000001  L 0 1.5000000000000013  C 0 1.0937499999999978  0.12369791666666667 0.7421874999999978  0.37109375 0.44531250000000133  C 0.6184895833333334 0.14843749999999822  0.9114583333333335 0  1.25 0  L 28.75 0  C 29.08854166666667 0  29.38151041666667 0.14843749999999822  29.62890625 0.44531250000000133  Z " fill-rule="nonzero" fill="#555555" stroke="none" transform="matrix(1 0 0 1 1355 580 )" />
  </g>
</svg>