<?xml version="1.0" encoding="utf-8"?>
<svg version="1.1" xmlns:xlink="http://www.w3.org/1999/xlink" width="30px" height="30px" xmlns="http://www.w3.org/2000/svg">
  <g transform="matrix(1 0 0 1 -33 -409 )">
    <path d="M 1.0760869565217395 27.108016304347824  C 1.4021739130434785 26.755434782608695  1.8342391304347827 26.569972826086957  2.3722826086956523 26  L 27.338315217391305 26  C 27.876358695652172 26.569972826086957  28.308423913043477 26.737092391304344  28.63451086956522 27.05298913043478  C 28.9585597826087 27.368885869565215  29.12160326086957 27.79483695652174  29.12160326086957 28.334918478260867  L 29.12160326086957 29  L 0.588994565217392 29  L 0.588994565217392 28.334918478260867  C 0.588994565217392 27.87024456521739  0.7520380434782615 27.460597826086953  1.0760869565217395 27.108016304347824  Z M 26.278532608695652 11.588315217391306  C 26.800271739130434 11.050271739130437  26.977581521739133 10.512228260869568  26.810461956521742 9.972146739130434  L 23.606657608695652 1.7792119565217388  C 23.421195652173914 1.4082880434782608  23.164402173913043 1.1066576086956519  22.840353260869566 0.8743206521739129  C 22.514266304347828 0.641983695652174  22.17595108695652 0.5258152173913043  21.82336956521739 1  L 7.889266304347827 1  C 7.536684782608695 0.544157608695652  7.2065217391304355 0.6562500000000001  6.900815217391304 0.8600543478260867  C 6.595108695652173 1.0638586956521736  6.3953804347826075 1.3063858695652173  6.301630434782608 1.5835597826086953  L 2.9021739130434785 9.972146739130435  C 2.8084239130434785 10.251358695652174  2.7717391304347823 10.548913043478262  2.79008152173913 10.864809782608695  C 2.808423913043478 11.18070652173913  2.910326086956522 11.478260869565219  3.0957880434782608 11.757472826086955  L 12.179347826086955 24.436141304347824  C 12.364809782608694 24.697010869565215  12.582880434782608 24.878396739130437  12.833559782608694 24.980298913043473  C 13.08423913043478 25.08220108695652  13.33899456521739 25.13315217391304  13.599864130434781 25.13315217391304  L 13.962635869565215 25.13315217391304  L 13.962635869565215 16.742527173913043  L 15.913043478260871 16.742527173913043  L 15.913043478260871 24.961956521739133  C 16.183749872288704 24.94579412184069  16.446588187304396 24.86470570550606  16.679347826086957 24.725543478260875  C 16.911684782608695 24.58695652173914  17.074728260869566 24.42391304347827  17.166440217391305 24.238451086956527  L 26.278532608695652 11.588315217391306  Z M 17.949048913043477 11.586277173913041  C 17.186820652173907 12.387228260869565  16.212635869565215 12.805027173913043  15.022418478260867 12.84171195652174  C 13.852581521739129 12.805027173913043  12.886548913043477 12.405570652173912  12.124320652173914 11.643342391304348  C 11.362092391304348 10.881114130434781  10.962635869565217 9.906929347826084  10.92595108695652 8.716711956521738  C 10.962635869565217 7.546875000000001  11.362092391304348 6.580842391304348  12.124320652173914 5.818614130434782  C 12.886548913043477 5.056385869565218  13.852581521739129 4.656929347826087  15.022418478260867 4.620244565217391  C 16.210597826086957 4.656929347826087  17.186820652173907 5.056385869565218  17.949048913043477 5.818614130434782  C 18.711277173913043 6.580842391304349  19.110733695652172 7.546875000000001  19.147418478260867 8.716711956521738  C 19.11073369565217 9.831521739130434  18.71127717391304 10.787364130434781  17.949048913043477 11.586277173913041  Z " fill-rule="nonzero" fill="#e6eaf2" stroke="none" transform="matrix(1 0 0 1 33 409 )" />
  </g>
</svg>