<?xml version="1.0" encoding="utf-8"?>
<svg version="1.1" xmlns:xlink="http://www.w3.org/1999/xlink" width="30px" height="24px" xmlns="http://www.w3.org/2000/svg">
  <g transform="matrix(1 0 0 1 -393 -281 )">
    <path d="M 13.99103139013453 18  L 14.932735426008968 18  L 16.883408071748878 16.022727272727273  L 14.327354260089686 13.43181818181818  L 12.376681614349776 15.40909090909091  L 12.376681614349776 16.363636363636367  L 13.99103139013453 16.363636363636367  L 13.99103139013453 18  Z M 22.315022421524663 6.2897727272727275  C 22.50560538116592 6.0965909090909065  22.51121076233184 5.9090909090909065  22.331838565022423 5.7272727272727275  C 22.152466367713007 5.545454545454543  21.96748878923767 5.5511363636363615  21.776905829596412 5.7443181818181825  L 15.891255605381167 11.710227272727273  C 15.70067264573991 11.90340909090909  15.695067264573991 12.090909090909088  15.874439461883407 12.272727272727273  C 16.053811659192828 12.454545454545453  16.238789237668165 12.448863636363633  16.42937219730942 12.25568181818182  L 22.315022421524663 6.2897727272727275  Z M 23.340807174887892 15.357954545454545  C 23.565022421524667 15.448863636363633  23.677130044843047 15.613636363636365  23.677130044843047 15.852272727272727  L 23.677130044843047 19.09090909090909  C 23.677130044843047 20.44318181818182  23.20347533632287 21.59943181818182  22.25616591928251 22.55965909090909  C 21.308856502242154 23.519886363636363  20.16816143497758 24  18.83408071748879 24  L 4.84304932735426 24  C 3.5089686098654713 24  2.368273542600897 23.519886363636363  1.420964125560538 22.55965909090909  C 0.4736547085201793 21.59943181818182  0 20.44318181818182  0 19.09090909090909  L 0 4.90909090909091  C 0 3.556818181818179  0.4736547085201793 2.4005681818181808  1.420964125560538 1.44034090909091  C 2.368273542600897 0.480113636363634  3.5089686098654713 0  4.84304932735426 0  L 18.83408071748879 0  C 19.54035874439462 0  20.196188340807176 0.14204545454545325  20.80156950672646 0.4261363636363624  C 20.969730941704036 0.5056818181818166  21.07062780269058 0.6363636363636358  21.1042600896861 0.8181818181818175  C 21.137892376681613 1.0113636363636358  21.08744394618834 1.1761363636363624  20.952914798206276 1.3125  L 20.128923766816143 2.1477272727272725  C 19.971973094170405 2.3068181818181808  19.79260089686099 2.3522727272727275  19.590807174887892 2.28409090909091  C 19.332959641255606 2.21590909090909  19.08071748878924 2.1818181818181825  18.83408071748879 2.1818181818181825  L 4.84304932735426 2.1818181818181825  C 4.103139013452915 2.1818181818181825  3.4697309417040367 2.448863636363634  2.9428251121076237 2.982954545454545  C 2.415919282511211 3.5170454545454533  2.1524663677130045 4.15909090909091  2.1524663677130045 4.90909090909091  L 2.1524663677130045 19.09090909090909  C 2.1524663677130045 19.84090909090909  2.415919282511211 20.48295454545454  2.9428251121076237 21.017045454545453  C 3.4697309417040367 21.551136363636363  4.103139013452915 21.818181818181817  4.84304932735426 21.818181818181817  L 18.83408071748879 21.818181818181817  C 19.573991031390136 21.818181818181817  20.207399103139014 21.551136363636363  20.734304932735427 21.017045454545453  C 21.26121076233184 20.48295454545454  21.524663677130043 19.84090909090909  21.524663677130043 19.09090909090909  L 21.524663677130043 16.94318181818182  C 21.524663677130043 16.795454545454543  21.57511210762332 16.670454545454547  21.676008968609864 16.56818181818182  L 22.75224215246637 15.477272727272727  C 22.920403587443946 15.30681818181818  23.116591928251122 15.267045454545453  23.340807174887892 15.357954545454545  Z M 10.762331838565022 14.727272727272727  L 22.062780269058297 3.2727272727272725  L 26.905829596412556 8.181818181818183  L 15.605381165919281 19.636363636363633  L 10.762331838565022 19.636363636363633  L 10.762331838565022 14.727272727272727  Z M 30 4.363636363636362  C 30 4.818181818181817  29.84304932735426 5.204545454545453  29.529147982062778 5.5227272727272725  L 27.98206278026906 7.09090909090909  L 23.1390134529148 2.1818181818181825  L 24.686098654708523 0.6136363636363624  C 25 0.2954545454545432  25.381165919282513 0.13636363636363757  25.829596412556054 0.13636363636363757  C 26.2780269058296 0.13636363636363757  26.659192825112108 0.2954545454545432  26.973094170403588 0.6136363636363624  L 29.529147982062778 3.204545454545455  C 29.84304932735426 3.522727272727269  30 3.9090909090909083  30 4.363636363636362  Z " fill-rule="nonzero" fill="#68c8c5" stroke="none" transform="matrix(1 0 0 1 393 281 )" />
  </g>
</svg>