<?xml version="1.0" encoding="utf-8"?>
<svg version="1.1" xmlns:xlink="http://www.w3.org/1999/xlink" width="37px" height="28px" xmlns="http://www.w3.org/2000/svg">
  <g transform="matrix(1 0 0 1 -31 -665 )">
    <path d="M 6.9375 14  L 11.5625 14  L 11.5625 23.333333333333336  L 6.9375 23.333333333333336  L 6.9375 14  Z M 14 4.666666666666666  L 18 4.666666666666666  L 18 23.333333333333336  L 14 23.333333333333336  L 14 4.666666666666666  Z M 3 25.666666666666664  L 37 25.666666666666664  L 37 28  L 0 28  L 0 0  L 3 0  L 3 25.666666666666664  Z M 20.8125 9.333333333333334  L 25 9.333333333333334  L 25 23.333333333333336  L 20.8125 23.333333333333336  L 20.8125 9.333333333333334  Z M 27.75 2.3333333333333344  L 32 2.3333333333333344  L 32 23.333333333333336  L 27.75 23.333333333333336  L 27.75 2.3333333333333344  Z " fill-rule="nonzero" fill="#e6eaf2" stroke="none" transform="matrix(1 0 0 1 31 665 )" />
  </g>
</svg>