<?xml version="1.0" encoding="utf-8"?>
<svg version="1.1" xmlns:xlink="http://www.w3.org/1999/xlink" width="36px" height="28px" xmlns="http://www.w3.org/2000/svg">
  <g transform="matrix(1 0 0 1 -31 -151 )">
    <path d="M 30.82527881040892 15.99688230709275  C 30.840148698884757 16.025980774227072  30.84758364312268 16.069628474928553  30.84758364312268 16.127825409197193  L 30.84758364312268 26.60327357755261  C 30.84758364312268 26.98155365029878  30.706319702602233 27.308911405559886  30.423791821561338 27.58534684333593  C 30.14126394052045 27.861782281111978  29.80669144981413 28  29.420074349442377 28  L 20.855018587360593 28  L 20.855018587360593 19.619641465315667  L 15.144981412639405 19.619641465315667  L 15.144981412639405 28  L 6.5799256505576205 28  C 6.193308550185875 28  5.858736059479554 27.861782281111978  5.5762081784386615 27.58534684333593  C 5.293680297397771 27.308911405559886  5.152416356877323 26.98155365029878  5.152416356877323 26.60327357755261  L 5.152416356877323 16.127825409197193  C 5.152416356877323 16.113276175630034  5.156133828996283 16.091452325279292  5.163568773234201 16.062353858144974  C 5.17100371747212 16.033255391010652  5.174721189591079 16.011431540659913  5.174721189591079 15.99688230709275  L 18 5.652377240841776  L 30.82527881040892 15.99688230709275  Z M 35.97769516728624 14.109119251753704  C 35.992565055762086 14.305533904910366  35.940520446096656 14.4764873993245  35.82156133828996 14.621979734996104  L 34.438661710037174 16.236944660950897  C 34.319702602230485 16.367887763055343  34.1635687732342 16.44790854767472  33.97026022304833 16.477007014809043  L 33.90334572490706 16.477007014809043  C 33.710037174721194 16.477007014809043  33.55390334572491 16.42608469732398  33.43494423791822 16.324240062353855  L 18 3.7318784099766176  L 2.5650557620817844 16.324240062353855  C 2.386617100371747 16.44063393089114  2.2081784386617103 16.4915562483762  2.029739776951673 16.477007014809043  C 1.8364312267657994 16.44790854767472  1.680297397769517 16.367887763055343  1.5613382899628252 16.236944660950897  L 0.17843866171003717 14.621979734996104  C 0.05947955390334575 14.4764873993245  0.007434944237918269 14.305533904910366  0.022304832713754646 14.109119251753704  C 0.037174721189591184 13.912704598597038  0.1189591078066915 13.756300337750064  0.26765799256505574 13.639906469212782  L 16.304832713754646 0.5674201091192526  C 16.780669144981413 0.18914003637308108  17.345724907063197 0  18 0  C 18.654275092936807 0  19.21933085501859 0.18914003637308108  19.695167286245354 0.5674201091192526  L 25.13754646840149 5.0194855806703025  L 25.13754646840149 0.7638347622759145  C 25.13754646840149 0.5601454923356686  25.20446096654275 0.392829306313327  25.33828996282528 0.26188620420888675  C 25.472118959107807 0.13094310210444338  25.643122676579925 0.06547155105222169  25.851301115241636 0.06547155105222169  L 30.13382899628253 0.06547155105222169  C 30.34200743494424 0.06547155105222169  30.513011152416354 0.13094310210444338  30.646840148698885 0.26188620420888675  C 30.780669144981413 0.392829306313327  30.84758364312268 0.5601454923356686  30.84758364312268 0.7638347622759145  L 30.84758364312268 9.66796570537802  L 35.732342007434944 13.639906469212782  C 35.88104089219331 13.756300337750064  35.96282527881041 13.912704598597038  35.97769516728624 14.109119251753704  Z " fill-rule="nonzero" fill="#e6eaf2" stroke="none" transform="matrix(1 0 0 1 31 151 )" />
  </g>
</svg>