<?xml version="1.0" encoding="utf-8"?>
<svg version="1.1" xmlns:xlink="http://www.w3.org/1999/xlink" width="32px" height="35px" xmlns="http://www.w3.org/2000/svg">
  <g transform="matrix(1 0 0 1 -1573 -31 )">
    <path d="M 16 33.4375  C 16.205128205128208 33.4375  16.30769230769231 33.333333333333336  16.307692307692307 33.125  C 16.30769230769231 32.916666666666664  16.205128205128208 32.8125  16 32.8125  C 15.243589743589745 32.8125  14.59294871794872 32.535807291666664  14.048076923076923 31.982421875  C 13.50320512820513 31.429036458333332  13.23076923076923 30.768229166666664  13.23076923076923 30.000000000000004  C 13.23076923076923 29.791666666666664  13.12820512820513 29.6875  12.923076923076923 29.6875  C 12.717948717948719 29.6875  12.615384615384615 29.791666666666664  12.615384615384615 30.000000000000004  C 12.615384615384615 30.950520833333332  12.945512820512821 31.761067708333336  13.60576923076923 32.431640625  C 14.266025641025642 33.102213541666664  15.064102564102566 33.4375  16 33.4375  Z M 30.25 25.781249999999996  C 30.77564102564103 26.380208333333336  31.35897435897436 26.953125  32 27.5  C 32.00000000000001 28.177083333333336  31.75641025641026 28.763020833333336  31.26923076923077 29.2578125  C 30.782051282051285 29.752604166666664  30.205128205128208 30.000000000000004  29.53846153846154 30.000000000000004  L 20.923076923076923 30.000000000000004  C 20.923076923076923 31.380208333333336  20.442307692307693 32.55859375  19.48076923076923 33.53515625  C 18.51923076923077 34.51171875  17.35897435897436 35  16 35  C 14.641025641025642 35  13.48076923076923 34.51171875  12.51923076923077 33.53515625  C 11.557692307692308 32.55859375  11.076923076923077 31.380208333333336  11.076923076923077 30.000000000000004  L 2.4615384615384617 30.000000000000004  C 1.7948717948717952 30.000000000000004  1.217948717948718 29.752604166666664  0.7307692307692307 29.2578125  C 0.24358974358974367 28.763020833333336  0 28.177083333333336  0 27.5  C 0.6410256410256412 26.953125  1.2243589743589747 26.380208333333336  1.75 25.781249999999996  C 2.275641025641026 25.182291666666664  2.8205128205128207 24.404296875  3.3846153846153846 23.447265625  C 3.9487179487179493 22.490234375  4.426282051282052 21.458333333333332  4.8173076923076925 20.3515625  C 5.208333333333334 19.244791666666668  5.528846153846154 17.903645833333336  5.778846153846154 16.328125  C 6.028846153846154 14.752604166666666  6.153846153846154 13.059895833333329  6.153846153846154 11.249999999999998  C 6.153846153846154 9.270833333333332  6.903846153846154 7.431640625000001  8.403846153846153 5.732421874999998  C 9.903846153846153 4.033203125  11.871794871794872 3.001302083333331  14.307692307692308 2.636718749999999  C 14.205128205128206 2.3893229166666634  14.153846153846153 2.135416666666667  14.153846153846153 1.875000000000001  C 14.153846153846153 1.3541666666666656  14.333333333333334 0.911458333333332  14.692307692307692 0.546875  C 15.051282051282053 0.18229166666666796  15.487179487179487 0  16 0  C 16.512820512820515 0  16.948717948717952 0.18229166666666796  17.307692307692307 0.546875  C 17.666666666666668 0.911458333333332  17.846153846153847 1.3541666666666656  17.846153846153847 1.875000000000001  C 17.846153846153847 2.135416666666667  17.794871794871796 2.3893229166666634  17.692307692307693 2.636718749999999  C 20.12820512820513 3.001302083333331  22.096153846153847 4.033203125  23.596153846153847 5.732421874999998  C 25.096153846153847 7.431640625000001  25.846153846153847 9.270833333333332  25.846153846153847 11.249999999999998  C 25.846153846153847 13.059895833333329  25.971153846153847 14.752604166666666  26.221153846153847 16.328125  C 26.471153846153847 17.903645833333336  26.791666666666668 19.244791666666668  27.182692307692307 20.3515625  C 27.573717948717952 21.458333333333332  28.05128205128205 22.490234375  28.615384615384617 23.447265625  C 29.179487179487182 24.404296875  29.72435897435898 25.182291666666664  30.25 25.781249999999996  Z " fill-rule="nonzero" fill="#e6eaf2" stroke="none" transform="matrix(1 0 0 1 1573 31 )" />
  </g>
</svg>