<?xml version="1.0" encoding="utf-8"?>
<svg version="1.1" xmlns:xlink="http://www.w3.org/1999/xlink" width="25px" height="27px" xmlns="http://www.w3.org/2000/svg">
  <g transform="matrix(1 0 0 1 -37 -586 )">
    <path d="M 1 6.75  L 12.377717391304346 0  L 24 6.75  L 24 20.25  L 12.37771739130435 27  L 1 20.25  L 1 6.75  Z M 5.940896739130428 19.191375008789066  L 6.132246385657267 19.381499991210934  C 7.188247311914828 20.42494253020067  8.894180242008405 20.424942530200664  9.950181168265965 19.381499991210937  L 12.240715570864468 17.105625008789062  C 11.380208315641982 17.200125008789062  10.618206521739129 17.011125008789065  10.044157608695652 16.441874991210938  L 8.517889483907949 17.95950000878906  C 8.23143114172894 18.244125017578124  7.849864130434782 18.244125017578124  7.563405788255774 17.95950000878906  L 7.373188396951426 17.769375  C 7.086730054772417 17.48474999121094  7.086730054772417 17.105625008789065  7.373188396951426 16.821  L 9.282155788255773 14.924250000000002  L 11.094882255222485 13.123125008789065  L 12.335824266516644 11.890125000000001  L 12.430932962168818 11.795625000000001  C 12.717391304347824 11.51099999121094  13.098958315641983 11.51099999121094  13.38541665782099 11.795625000000001  L 13.576766304347823 11.984625000000001  L 13.671874999999996 12.080250008789063  L 15.199275353473162 10.561500008789064  L 15.103034429135526 10.468124991210939  L 14.912817037831177 10.278000008789062  C 13.85681611157362 9.234557469799334  12.150883181480038 9.234557469799334  11.094882255222482 10.278000008789066  L 5.940896739130428 15.398999991210939  C 4.89148357852442 16.44811128118283  4.89148357852442 18.142263718817173  5.940896739130428 19.191375008789066  Z M 9.663722826086953 15.493499991210937  L 9.853940217391305 15.683625000000001  C 10.909941143648865 16.727067538989733  12.615874073742441 16.72706753898973  13.671875000000004 15.683625000000001  L 18.825860516092053 10.562624991210939  C 19.876024102031796 9.513382470881426  19.876024102031796 7.8183675115404485  18.825860516092057 6.769124991210939  L 18.634510869565222 6.580124991210938  C 17.57850994330766 5.536682452221208  15.872577013214082 5.536682452221208  14.816576086956523 6.580124991210938  L 12.526041657820993 8.856000000000002  C 13.290307962168818 8.856000000000002  14.054574266516646 9.045  14.626358695652176 9.614249991210938  L 16.248867744777513 8.002125000000001  C 16.535326086956523 7.717499991210939  16.91689309825068 7.717499991210939  17.20335144042969 8.002125000000001  L 17.393568831734036 8.192250008789063  C 17.680027173913043 8.476875017578127  17.680027173913043 8.856000000000002  17.393568831734036 9.140625008789064  L 15.484601440429687 11.03625  L 13.671875 12.838500000000002  L 12.812499999999998 13.692375000000002  L 12.240715570864468 14.260500008789062  C 11.95425722868546 14.545125017578126  11.572690217391301 14.545125017578126  11.286231875212295 14.260500008789062  L 11.094882255222483 14.071500008789062  L 10.999773559570311 13.975875  L 9.567481875212295 15.398999991210939  L 9.663722826086953 15.493499991210937  Z " fill-rule="nonzero" fill="#e6eaf2" stroke="none" transform="matrix(1 0 0 1 37 586 )" />
  </g>
</svg>