<?xml version="1.0" encoding="utf-8"?>
<svg version="1.1" xmlns:xlink="http://www.w3.org/1999/xlink" width="37px" height="37px" xmlns="http://www.w3.org/2000/svg">
  <g transform="matrix(1 0 0 1 -31 -779 )">
    <path d="M 21.366536458333336 9.466796875  C 21.511067708333336 9.611328125  21.583333333333336 9.79600694444444  21 10.020833333333334  L 21 20.8125  C 21.583333333333336 21.037326388888886  21.511067708333336 21.222005208333332  21.366536458333336 21.366536458333332  C 21.222005208333336 21.511067708333332  21.037326388888893 21.583333333333332  20.8125 21.583333333333332  L 13.104166666666668 21.583333333333332  C 12.87934027777778 21.583333333333332  12.694661458333332 21.511067708333332  12.550130208333332 21.366536458333332  C 12.405598958333332 21.222005208333332  12.333333333333332 21.037326388888886  12.333333333333332 20.8125  L 12.333333333333332 19.270833333333332  C 12.333333333333332 19.046006944444443  12.405598958333332 18.861328125  12.550130208333332 18.716796875  C 12.694661458333332 18.572265625  12.87934027777778 18.5  13.104166666666668 18.5  L 18.5 18.5  L 18.5 10.020833333333334  C 18.5 9.79600694444444  18.572265625 9.611328125  18.716796875 9.466796875  C 18.861328125000004 9.322265625  19.046006944444446 9.25  19.270833333333336 9.25  L 20.8125 9.25  C 21.037326388888893 9.25  21.222005208333336 9.322265625  21.366536458333336 9.466796875  Z M 29.845703125 25.076171875  C 31.01801215277778 23.068793402777775  31.604166666666664 20.876736111111114  31.604166666666664 18.5  C 31.604166666666664 16.123263888888886  31.01801215277778 13.931206597222221  29.845703125 11.923828125  C 28.673394097222225 9.916449652777775  27.083550347222225 8.326605902777775  25.076171875 7.154296875  C 23.06879340277778 5.981987847222221  20.876736111111114 5.395833333333335  18.5 5.395833333333335  C 16.12326388888889 5.395833333333335  13.931206597222223 5.981987847222221  11.923828125 7.154296875  C 9.916449652777779 8.326605902777775  8.326605902777779 9.916449652777775  7.154296875 11.923828125  C 5.981987847222223 13.931206597222221  5.395833333333334 16.123263888888886  5.395833333333334 18.5  C 5.395833333333334 20.876736111111114  5.981987847222223 23.068793402777775  7.154296875 25.076171875  C 8.326605902777779 27.083550347222218  9.916449652777779 28.67339409722222  11.923828125 29.845703125  C 13.931206597222223 31.01801215277778  16.12326388888889 31.604166666666664  18.5 31.604166666666664  C 20.876736111111114 31.604166666666664  23.06879340277778 31.01801215277778  25.076171875 29.845703125  C 27.083550347222225 28.67339409722222  28.673394097222225 27.083550347222218  29.845703125 25.076171875  Z M 34.518880208333336 9.2138671875  C 36.17296006944444 12.048285590277775  37 15.14366319444444  37 18.5  C 37 21.856336805555557  36.17296006944444 24.951714409722218  34.518880208333336 27.7861328125  C 32.86480034722223 30.62055121527778  30.62055121527778 32.86480034722222  27.7861328125 34.518880208333336  C 24.951714409722225 36.17296006944445  21.856336805555557 37  18.5 37  C 15.143663194444446 37  12.048285590277779 36.17296006944445  9.2138671875 34.518880208333336  C 6.379448784722223 32.86480034722222  4.135199652777779 30.62055121527778  2.481119791666667 27.7861328125  C 0.8270399305555555 24.951714409722218  0 21.856336805555557  0 18.5  C 0 15.14366319444444  0.8270399305555555 12.048285590277775  2.481119791666667 9.2138671875  C 4.135199652777779 6.379448784722221  6.379448784722223 4.135199652777774  9.2138671875 2.481119791666665  C 12.048285590277779 0.8270399305555524  15.143663194444446 0  18.5 0  C 21.856336805555557 0  24.951714409722225 0.8270399305555524  27.7861328125 2.481119791666665  C 30.62055121527778 4.135199652777774  32.86480034722223 6.379448784722221  34.518880208333336 9.2138671875  Z " fill-rule="nonzero" fill="#e6eaf2" stroke="none" transform="matrix(1 0 0 1 31 779 )" />
  </g>
</svg>