<?xml version="1.0" encoding="utf-8"?>
<svg version="1.1" xmlns:xlink="http://www.w3.org/1999/xlink" width="30px" height="15px" xmlns="http://www.w3.org/2000/svg">
  <g transform="matrix(1 0 0 1 -1452 -27 )">
    <path d="M 29.443359375 0.4947916666666674  C 29.814453125000004 0.8246527777777746  30 1.2152777777777741  30 1.6666666666666674  C 30 2.118055555555554  29.814453125000004 2.5086805555555536  29.443359375 2.8385416666666674  L 16.318359375 14.505208333333332  C 15.947265625000002 14.83506944444444  15.507812500000002 15  15 15  C 14.492187500000002 15  14.052734375000002 14.83506944444444  13.681640625 14.505208333333332  L 0.556640625 2.8385416666666674  C 0.185546875 2.5086805555555536  0 2.118055555555554  0 1.6666666666666674  C 0 1.2152777777777741  0.185546875 0.8246527777777746  0.556640625 0.4947916666666674  C 0.927734375 0.16493055555555358  1.3671875000000002 0  1.875 0  L 28.125 0  C 28.6328125 0  29.072265625 0.16493055555555358  29.443359375 0.4947916666666674  Z " fill-rule="nonzero" fill="#40444d" stroke="none" transform="matrix(1 0 0 1 1452 27 )" />
  </g>
</svg>