<?xml version="1.0" encoding="utf-8"?>
<svg version="1.1" xmlns:xlink="http://www.w3.org/1999/xlink" width="28px" height="25px" xmlns="http://www.w3.org/2000/svg">
  <g transform="matrix(1 0 0 1 -34 -229 )">
    <path d="M 8.441100692927487 5.580686915846016  C 8.3397195250669 2.678513431393813  10.602381714209368 0.23986639511554905  13.504012702775292 0.12399283795881823  C 16.405643700912556 0.23986638219246986  18.668305904440967 2.6785134223327383  18.566924736794984 5.580686915846015  C 18.573880331620106 6.445426161971865  18.381379989010885 7.300127655695435  18.00437893912265 8.07839017726052  L 22.110963155774392 11.453664842435092  C 22.623820196261242 11.05782641520328  23.252032802674677 10.840520165566298  23.899858718889885 10.834864484333034  C 25.691751003591882 10.907973276942133  27.086113384500777 12.418113044656804  27.016362338406445 14.210139173679497  C 27.01830129095288 14.255868648829415  27.019271093694773 14.301634074091268  27.019271093694773 14.347404637059888  C 27.019271093694773 16.089926838513044  25.641168532714385 17.520423441919334  23.89985871888988 17.585413863025963  C 22.158548905065377 17.520423441919334  20.78044634408499 16.08992683851304  20.78044634408499 14.347404637059888  C 20.78044634408499 14.301634074091313  20.781416146826878 14.255868648829367  20.783355099373313 14.210139173679497  C 20.78111103508736 13.80386424241541  20.849640408692707 13.40030238289904  20.985871584601608 13.017542115487913  L 16.879287392121753 9.64226742614145  C 16.204710351671967 10.302577347036232  15.352450886142286 10.75216376422648  14.426587788719782 10.936122726947179  L 14.426587788719779 16.167798490599814  C 16.346490818175486 16.702837688550325  17.658005323908167 18.473150556212232  17.610596895255146 20.46564824171889  C 17.692849966259907 22.816928026973976  15.855177766020667 24.79053762587013  13.504012702775292 24.87600716204119  C 11.157301354884734 24.7845026576599  9.32634088784331 22.81269906945616  9.408679436884514 20.46564824171889  C 9.355872630924841 18.475067655220833  10.66359858937414 16.703609093469083  12.581437641002687 16.16779849059982  L 12.581437641002688 10.936122726947183  C 11.656446185645413 10.749711071311213  10.804847310219252 10.300473130553184  10.128738037600717 9.64226742614145  L 6.033404747538049 13.017542115487913  C 6.1696359234469496 13.400302382899042  6.238165297052295 13.80386424241541  6.235921232766338 14.210139173679497  C 6.237860185312778 14.255868648829392  6.238829988054669 14.301634074091291  6.238829988054669 14.347404637059888  C 6.238829988054669 16.089926838513044  4.860727427074283 17.520423441919334  3.1194176132497757 17.585413863025963  C 1.37810779942527 17.520423441919334  0 16.089926838513044  0 14.347404637059888  C 0 14.301634074091291  0.0009750411867738319 14.255868648829392  0.0029139937332133036 14.210139173679492  C -0.06683705236111943 12.418113044656804  1.327525328547778 10.907973276942133  3.1194176132497757 10.834864484333034  C 3.767243537759539 10.840520160305768  4.3954561534741465 11.057826410223853  4.908313200537153 11.453664842435094  L 9.003646466427933 8.078390177260518  C 8.626645424888247 7.300127653698276  8.434145090571763 6.445426160069004  8.441100692927487 5.580686915846016  Z " fill-rule="nonzero" fill="#e6eaf2" stroke="none" transform="matrix(1 0 0 1 34 229 )" />
  </g>
</svg>