<?xml version="1.0" encoding="utf-8"?>
<svg version="1.1" xmlns:xlink="http://www.w3.org/1999/xlink" width="46px" height="43px" xmlns="http://www.w3.org/2000/svg">
  <g transform="matrix(1 0 0 1 -431 -124 )">
    <path d="M 31.034598214285715 36.729166666666664  C 32.660342261904766 36.13194444444444  34.089285714285715 35.833333333333336  35.32142857142858 35.833333333333336  L 36 35.833333333333336  L 36 17.916666666666664  L 35.32142857142858 17.916666666666664  C 34.72247023809524 17.916666666666664  34.144903273809526 17.8046875  33.58872767857142 17.580729166666664  C 33.032552083333336 17.35677083333333  32.49776785714286 17.011501736111104  31.984375 16.544921875  C 31.470982142857142 16.078342013888886  31.043154761904766 15.649088541666664  30.700892857142858 15.257161458333336  C 30.358630952380956 14.865234375  29.939360119047624 14.361328125  29.443080357142858 13.745442708333336  C 29.306175595238095 13.577473958333336  29.20349702380953 13.44683159722222  29.135044642857142 13.353515625  C 27.902901785714285 11.841796875  26.944568452380956 10.488715277777775  26.260044642857142 9.294270833333336  C 26.020461309523814 8.883680555555555  25.6953125 8.24913194444444  25.284598214285715 7.390625  C 25.267485119047624 7.334635416666665  25.177641369047624 7.124674479166665  25.015066964285715 6.7607421875  C 24.852492559523814 6.396809895833335  24.694196428571427 6.060872395833335  24.540178571428573 5.7529296875  C 24.386160714285715 5.444986979166665  24.215029761904763 5.113715277777775  24.026785714285715 4.759114583333335  C 23.83854166666667 4.404513888888885  23.654575892857142 4.119900173611105  23.474888392857142 3.9052734375  C 23.295200892857142 3.6906467013888853  23.136904761904763 3.583333333333335  23 3.583333333333335  C 21.78497023809524 3.583333333333335  20.79668898809524 3.8679470486111054  20.03515625 4.437174479166665  C 19.273623511904763 5.00640190972222  18.892857142857142 5.916232638888885  18.892857142857142 7.166666666666665  C 18.892857142857142 7.969184027777775  19.021205357142858 8.757703993055555  19.27790178571429 9.5322265625  C 19.53459821428571 10.30674913194444  19.81696428571429 10.941297743055555  20.125 11.435872395833336  C 20.43303571428571 11.930447048611105  20.71540178571429 12.443684895833336  20.97209821428571 12.9755859375  C 21.228794642857142 13.507486979166664  21.357142857142858 13.96006944444444  21.357142857142858 15  L 6.571428571428571 15  C 5.71577380952381 14.333333333333336  4.954241071428572 14.692599826388886  4.286830357142858 15.4111328125  C 3.619419642857143 16.129665798611104  3.2857142857142856 16.964843749999996  3.2857142857142856 17.916666666666664  C 3.2857142857142856 18.887152777777775  3.610863095238096 19.726996527777775  4.261160714285714 20.436197916666664  C 4.911458333333335 21.145399305555554  5.6815476190476195 21.5  6.571428571428571 21.5  L 15.068080357142858 21.5  C 14.811383928571429 21.81727430555555  14.59747023809524 22.26052517361111  14.426339285714286 22.82975260416667  C 14.255208333333336 23.39898003472222  14.169642857142858 23.91688368055555  14.169642857142858 24.38346354166667  C 14.169642857142858 25.67122395833333  14.623139880952383 26.78168402777777  15.530133928571429 27.71484375  C 15.222098214285714 28.31206597222222  15.068080357142858 28.95594618055555  15.068080357142858 29.646484375  C 15.068080357142858 30.33702256944444  15.21781994047619 31.02289496527777  15.517299107142858 31.7041015625  C 15.816778273809526 32.38530815972222  16.22321428571429 32.875217013888886  16.736607142857142 33.173828125  C 16.668154761904763 33.621744791666664  16.63392857142857 34.144314236111114  16.63392857142857 34.741536458333336  C 16.63392857142857 36.327907986111114  17.048921130952383 37.503689236111114  17.87890625 38.268880208333336  C 18.70889136904762 39.03407118055556  19.86830357142857 39.416666666666664  21.357142857142858 39.416666666666664  C 22.794642857142858 39.416666666666664  24.360491071428573 39.11805555555556  26.0546875 38.520833333333336  C 27.748883928571427 37.923611111111114  29.40885416666667 37.326388888888886  31.034598214285715 36.729166666666664  Z M 42.2265625 35.301432291666664  C 42.55171130952381 34.94683159722222  42.714285714285715 34.52690972222222  42.714285714285715 34.041666666666664  C 42.714285714285715 33.556423611111114  42.55171130952381 33.136501736111114  42.2265625 32.781901041666664  C 41.90141369047619 32.42730034722222  41.51636904761905 32.25  41.07142857142858 32.25  C 40.626488095238095 32.25  40.241443452380956 32.42730034722222  39.91629464285714 32.781901041666664  C 39.59114583333333 33.136501736111114  39.42857142857142 33.556423611111114  39.42857142857142 34.041666666666664  C 39.42857142857142 34.52690972222222  39.59114583333333 34.94683159722222  39.91629464285714 35.301432291666664  C 40.241443452380956 35.656032986111114  40.626488095238095 35.833333333333336  41.07142857142858 35.833333333333336  C 41.51636904761905 35.833333333333336  41.90141369047619 35.656032986111114  42.2265625 35.301432291666664  Z M 45.03738839285714 15.383138020833336  C 45.679129464285715 16.0830078125  46 16.92751736111111  46 17.916666666666664  L 46 35.833333333333336  C 46 36.822482638888886  45.679129464285715 37.6669921875  45.03738839285714 38.366861979166664  C 44.39564732142858 39.066731770833336  43.621279761904766 39.416666666666664  42.714285714285715 39.416666666666664  L 35.32142857142858 39.416666666666664  C 34.311755952380956 39.416666666666664  32.403645833333336 39.96723090277778  29.597098214285715 41.068359375  C 26.345610119047624 42.356119791666664  23.63318452380953 43  21.45982142857143 43  C 19.029761904761905 43  17.061755952380956 42.27680121527778  15.555803571428571 40.830403645833336  C 14.04985119047619 39.384006076388886  13.305431547619047 37.35438368055556  13.322544642857142 34.741536458333336  L 13.348214285714286 34.6015625  C 12.304315476190478 33.18315972222222  11.782366071428573 31.52213541666667  11.782366071428571 29.61848958333333  C 11.782366071428573 29.20789930555555  11.808035714285715 28.806640625  11.859375 28.41471354166667  C 11.29464285714286 27.35091145833333  10.978050595238098 26.24045138888889  10.909598214285715 25.08333333333333  L 6.571428571428571 25.08333333333333  C 4.774553571428572 25.08333333333333  3.2300967261904767 24.37413194444444  1.9380580357142858 22.95572916666667  C 0.6460193452380951 21.53732638888889  0 19.848307291666664  0 17.888671875  C 0 15.96636284722222  0.6502976190476191 14.29600694444444  1.9508928571428572 12.877604166666664  C 3.2514880952380953 11.459201388888886  4.791666666666667 10.75  6.571428571428571 10.75  L 16.171875 10.75  C 15.795386904761907 9.630208333333336  15.607142857142858 8.435763888888886  15.607142857142858 7.166666666666665  C 15.607142857142858 4.88975694444444  16.30450148809524 3.12608506944444  17.69921875 1.8756510416666652  C 19.093936011904766 0.6252170138888852  20.860863095238095 0  23 0  C 23.65029761904762 0  24.244977678571427 0.16330295138888518  24.784040178571427 0.4899088541666651  C 25.323102678571427 0.8165147569444402  25.79371279761905 1.2784288194444402  26.195870535714285 1.8756510416666652  C 26.59802827380953 2.4728732638888853  26.944568452380956 3.0607638888888853  27.235491071428573 3.639322916666665  C 27.526413690476193 4.21788194444444  27.843005952380956 4.88975694444444  28.185267857142858 5.654947916666665  C 28.527529761904766 6.420138888888885  28.809895833333336 6.998697916666665  29.032366071428573 7.390625  C 29.63132440476191 8.41710069444444  30.48697916666667 9.620876736111105  31.599330357142858 11.001953125  C 31.63355654761905 11.057942708333336  31.753348214285715 11.216579861111105  31.958705357142858 11.477864583333336  C 32.1640625 11.739149305555555  32.32663690476191 11.939778645833336  32.44642857142858 12.079752604166664  C 32.56622023809524 12.2197265625  32.741629464285715 12.420355902777775  32.97265625 12.681640625  C 33.203683035714285 12.94292534722222  33.40904017857142 13.15288628472222  33.58872767857142 13.3115234375  C 33.76841517857142 13.470160590277775  33.9609375 13.638129340277775  34.16629464285714 13.8154296875  C 34.371651785714285 13.99273003472222  34.57273065476191 14.123372395833336  34.76953125 14.207356770833336  C 34.966331845238095 14.291341145833336  35.15029761904763 14.333333333333336  35.32142857142858 14.333333333333336  L 42.714285714285715 14.333333333333336  C 43.621279761904766 14.333333333333336  44.39564732142858 14.683268229166664  45.03738839285714 15.383138020833336  Z " fill-rule="nonzero" fill="#474667" stroke="none" transform="matrix(1 0 0 1 431 124 )" />
  </g>
</svg>