<?xml version="1.0" encoding="utf-8"?>
<svg version="1.1" xmlns:xlink="http://www.w3.org/1999/xlink" width="25px" height="29px" xmlns="http://www.w3.org/2000/svg">
  <g transform="matrix(1 0 0 1 -37 -234 )">
    <path d="M 5.289713541666666 11.732700892857144  C 7.524956597222222 12.196614583333336  9.928385416666668 12.428571428571429  12.5 12.428571428571429  C 15.071614583333334 12.428571428571429  17.47504340277778 12.196614583333336  19.710286458333336 11.732700892857144  C 21.945529513888893 11.268787202380949  23.708767361111114 10.583705357142856  25 9.677455357142856  L 25 12.428571428571429  C 25 13.172991071428571  24.441189236111107 13.863467261904761  23.323567708333336 14.5  C 22.205946180555557 15.136532738095235  20.686848958333336 15.64090401785714  18.766276041666664 16.013113839285715  C 16.845703125 16.385323660714285  14.756944444444445 16.57142857142857  12.5 16.57142857142857  C 10.243055555555557 16.57142857142857  8.154296875 16.385323660714285  6.233723958333334 16.013113839285715  C 4.313151041666666 15.64090401785714  2.7940538194444446 15.136532738095235  1.6764322916666667 14.5  C 0.5588107638888888 13.863467261904761  0 13.172991071428571  0 12.428571428571429  L 0 9.677455357142856  C 1.291232638888889 10.583705357142856  3.0544704861111116 11.268787202380949  5.289713541666666 11.732700892857144  Z M 5.289713541666666 24.16127232142857  C 7.524956597222222 24.625186011904766  9.928385416666668 24.857142857142858  12.5 24.857142857142858  C 15.071614583333334 24.857142857142858  17.47504340277778 24.625186011904766  19.710286458333336 24.16127232142857  C 21.945529513888893 23.69735863095238  23.708767361111114 23.012276785714285  25 22.106026785714285  L 25 24.857142857142858  C 25 25.6015625  24.441189236111107 26.29203869047619  23.323567708333336 26.92857142857143  C 22.205946180555557 27.565104166666664  20.686848958333336 28.06947544642857  18.766276041666664 28.441685267857146  C 16.845703125 28.813895089285715  14.756944444444445 29  12.5 29  C 10.243055555555557 29  8.154296875 28.813895089285715  6.233723958333334 28.441685267857146  C 4.313151041666666 28.06947544642857  2.7940538194444446 27.565104166666664  1.6764322916666667 26.92857142857143  C 0.5588107638888888 26.29203869047619  0 25.6015625  0 24.857142857142858  L 0 22.106026785714285  C 1.291232638888889 23.012276785714285  3.0544704861111116 23.69735863095238  5.289713541666666 24.16127232142857  Z M 5.289713541666666 17.946986607142858  C 7.524956597222222 18.410900297619047  9.928385416666668 18.642857142857142  12.5 18.642857142857142  C 15.071614583333334 18.642857142857142  17.47504340277778 18.410900297619047  19.710286458333336 17.946986607142858  C 21.945529513888893 17.483072916666664  23.708767361111114 16.79799107142857  25 15.891741071428571  L 25 18.642857142857142  C 25 19.387276785714285  24.441189236111107 20.077752976190474  23.323567708333336 20.714285714285715  C 22.205946180555557 21.350818452380953  20.686848958333336 21.855189732142858  18.766276041666664 22.22739955357143  C 16.845703125 22.599609375  14.756944444444445 22.785714285714285  12.5 22.785714285714285  C 10.243055555555557 22.785714285714285  8.154296875 22.599609375  6.233723958333334 22.22739955357143  C 4.313151041666666 21.855189732142858  2.7940538194444446 21.350818452380953  1.6764322916666667 20.714285714285715  C 0.5588107638888888 20.077752976190474  0 19.387276785714285  0 18.642857142857142  L 0 15.891741071428571  C 1.291232638888889 16.79799107142857  3.0544704861111116 17.483072916666664  5.289713541666666 17.946986607142858  Z M 6.233723958333334 0.5583147321428558  C 8.154296875 0.18610491071428525  10.243055555555557 0  12.5 0  C 14.756944444444445 0  16.845703125 0.18610491071428525  18.766276041666664 0.5583147321428558  C 20.686848958333336 0.9305245535714295  22.205946180555557 1.4348958333333321  23.323567708333336 2.0714285714285703  C 24.441189236111107 2.707961309523809  25 3.3984375  25 4.142857142857144  L 25 6.214285714285714  C 25 6.958705357142856  24.441189236111107 7.649181547619044  23.323567708333336 8.285714285714285  C 22.205946180555557 8.922247023809524  20.686848958333336 9.426618303571429  18.766276041666664 9.798828125  C 16.845703125 10.171037946428571  14.756944444444445 10.357142857142856  12.5 10.357142857142856  C 10.243055555555557 10.357142857142856  8.154296875 10.171037946428571  6.233723958333334 9.798828125  C 4.313151041666666 9.426618303571429  2.7940538194444446 8.922247023809524  1.6764322916666667 8.285714285714285  C 0.5588107638888888 7.649181547619044  0 6.958705357142856  0 6.214285714285714  L 0 4.142857142857144  C 0 3.3984375  0.5588107638888888 2.707961309523809  1.6764322916666667 2.0714285714285703  C 2.7940538194444446 1.4348958333333321  4.313151041666666 0.9305245535714295  6.233723958333334 0.5583147321428558  Z " fill-rule="nonzero" fill="#e6eaf2" stroke="none" transform="matrix(1 0 0 1 37 234 )" />
  </g>
</svg>