<?xml version="1.0" encoding="utf-8"?>
<svg version="1.1" xmlns:xlink="http://www.w3.org/1999/xlink" width="45px" height="35px" xmlns="http://www.w3.org/2000/svg">
  <g transform="matrix(1 0 0 1 -1663 -31 )">
    <path d="M 6.190011160714286 28.872514204545457  C 6.349051339285714 29.029947916666664  6.428571428571428 29.216382575757574  6.428571428571428 29.431818181818183  L 6.428571428571428 34.20454545454545  C 6.428571428571428 34.41998106060606  6.349051339285714 34.60641571969697  6.190011160714286 34.76384943181818  C 6.030970982142858 34.92128314393939  5.842633928571429 35  5.625 35  L 0.8035714285714285 35  C 0.5859375 35  0.3976004464285714 34.92128314393939  0.23856026785714288 34.76384943181818  C 0.07952008928571429 34.60641571969697  0 34.41998106060606  0 34.20454545454545  L 0 29.431818181818183  C 0 29.216382575757574  0.07952008928571429 29.029947916666664  0.23856026785714288 28.872514204545457  C 0.3976004464285714 28.715080492424246  0.5859375 28.636363636363633  0.8035714285714285 28.636363636363633  L 5.625 28.636363636363633  C 5.842633928571429 28.636363636363633  6.030970982142858 28.715080492424246  6.190011160714286 28.872514204545457  Z M 6.190011160714286 19.32705965909091  C 6.349051339285714 19.484493371212118  6.428571428571428 19.67092803030303  6.428571428571428 19.886363636363633  L 6.428571428571428 24.65909090909091  C 6.428571428571428 24.874526515151512  6.349051339285714 25.06096117424242  6.190011160714286 25.218394886363633  C 6.030970982142858 25.37582859848485  5.842633928571429 25.454545454545457  5.625 25.454545454545457  L 0.8035714285714285 25.454545454545457  C 0.5859375 25.454545454545457  0.3976004464285714 25.37582859848485  0.23856026785714288 25.218394886363633  C 0.07952008928571429 25.06096117424242  0 24.874526515151512  0 24.65909090909091  L 0 19.886363636363633  C 0 19.67092803030303  0.07952008928571429 19.484493371212118  0.23856026785714288 19.32705965909091  C 0.3976004464285714 19.169625946969695  0.5859375 19.09090909090909  0.8035714285714285 19.09090909090909  L 5.625 19.09090909090909  C 5.842633928571429 19.09090909090909  6.030970982142858 19.169625946969695  6.190011160714286 19.32705965909091  Z M 6.190011160714286 9.781605113636362  C 6.349051339285714 9.939038825757574  6.428571428571428 10.12547348484848  6.428571428571428 10.34090909090909  L 6.428571428571428 15.113636363636362  C 6.428571428571428 15.32907196969697  6.349051339285714 15.515506628787877  6.190011160714286 15.67294034090909  C 6.030970982142858 15.830374053030303  5.842633928571429 15.90909090909091  5.625 15.90909090909091  L 0.8035714285714285 15.90909090909091  C 0.5859375 15.90909090909091  0.3976004464285714 15.830374053030303  0.23856026785714288 15.67294034090909  C 0.07952008928571429 15.515506628787877  0 15.32907196969697  0 15.113636363636362  L 0 10.34090909090909  C 0 10.12547348484848  0.07952008928571429 9.939038825757574  0.23856026785714288 9.781605113636362  C 0.3976004464285714 9.624171401515149  0.5859375 9.545454545454545  0.8035714285714285 9.545454545454545  L 5.625 9.545454545454545  C 5.842633928571429 9.545454545454545  6.030970982142858 9.624171401515149  6.190011160714286 9.781605113636362  Z M 44.761439732142854 28.872514204545457  C 44.92047991071429 29.029947916666664  45 29.216382575757574  45 29.431818181818183  L 45 34.20454545454545  C 45 34.41998106060606  44.92047991071429 34.60641571969697  44.761439732142854 34.76384943181818  C 44.60239955357143 34.92128314393939  44.41406250000001 35  44.19642857142857 35  L 10.446428571428571 35  C 10.228794642857144 35  10.040457589285715 34.92128314393939  9.881417410714286 34.76384943181818  C 9.722377232142856 34.60641571969697  9.642857142857142 34.41998106060606  9.642857142857142 34.20454545454545  L 9.642857142857142 29.431818181818183  C 9.642857142857142 29.216382575757574  9.722377232142856 29.029947916666664  9.881417410714286 28.872514204545457  C 10.040457589285715 28.715080492424246  10.228794642857144 28.636363636363633  10.446428571428571 28  L 44.19642857142857 28  C 44.41406250000001 28.636363636363633  44.60239955357143 28.715080492424246  44.761439732142854 28.872514204545457  Z M 6.190011160714286 0.23615056818181712  C 6.349051339285714 0.39358428030302983  6.428571428571428 0.5800189393939365  6.428571428571428 0.7954545454545447  L 6.428571428571428 5.5681818181818175  C 6.428571428571428 5.783617424242421  6.349051339285714 5.970052083333329  6.190011160714286 6.127485795454545  C 6.030970982142858 6.284919507575758  5.842633928571429 6.3636363636363615  5.625 6.3636363636363615  L 0.8035714285714285 6.3636363636363615  C 0.5859375 6.3636363636363615  0.3976004464285714 6.284919507575758  0.23856026785714288 6.127485795454545  C 0.07952008928571429 5.970052083333329  0 5.783617424242421  0 5.5681818181818175  L 0 0.7954545454545447  C 0 0.5800189393939365  0.07952008928571429 0.39358428030302983  0.23856026785714288 0.23615056818181712  C 0.3976004464285714 0.07871685606060053  0.5859375 0  0.8035714285714285 0  L 5.625 0  C 5.842633928571429 0  6.030970982142858 0.07871685606060053  6.190011160714286 0.23615056818181712  Z M 44.761439732142854 19.32705965909091  C 44.92047991071429 19.484493371212118  45 19.67092803030303  45 19.886363636363633  L 45 24.65909090909091  C 45 24.874526515151512  44.92047991071429 25.06096117424242  44.761439732142854 25.218394886363633  C 44.60239955357143 25.37582859848485  44.41406250000001 25.454545454545457  44.19642857142857 25  L 10.446428571428571 25  C 10.228794642857144 25.454545454545457  10.040457589285715 25.37582859848485  9.881417410714286 25.218394886363633  C 9.722377232142856 25.06096117424242  9.642857142857142 24.874526515151512  9.642857142857142 24.65909090909091  L 9.642857142857142 19.886363636363633  C 9.642857142857142 19.67092803030303  9.722377232142856 19.484493371212118  9.881417410714286 19.32705965909091  C 10.040457589285715 19.169625946969695  10.228794642857144 19.09090909090909  10.446428571428571 19  L 44.19642857142857 19  C 44.41406250000001 19.09090909090909  44.60239955357143 19.169625946969695  44.761439732142854 19.32705965909091  Z M 44.761439732142854 9.781605113636362  C 44.92047991071429 9.939038825757574  45 10.12547348484848  45 10.34090909090909  L 45 15.113636363636362  C 45 15.32907196969697  44.92047991071429 15.515506628787877  44.761439732142854 15.67294034090909  C 44.60239955357143 15.830374053030303  44.41406250000001 15.90909090909091  44.19642857142857 16  L 10.446428571428571 16  C 10.228794642857144 15.90909090909091  10.040457589285715 15.830374053030303  9.881417410714286 15.67294034090909  C 9.722377232142856 15.515506628787877  9.642857142857142 15.32907196969697  9.642857142857142 15.113636363636362  L 9.642857142857142 10.34090909090909  C 9.642857142857142 10.12547348484848  9.722377232142856 9.939038825757574  9.881417410714286 9.781605113636362  C 10.040457589285715 9.624171401515149  10.228794642857144 9.545454545454545  10.446428571428571 10  L 44.19642857142857 10  C 44.41406250000001 9.545454545454545  44.60239955357143 9.624171401515149  44.761439732142854 9.781605113636362  Z M 44.761439732142854 0.23615056818181712  C 44.92047991071429 0.39358428030302983  45 0.5800189393939365  45 0.7954545454545447  L 45 5.5681818181818175  C 45 5.783617424242421  44.92047991071429 5.970052083333329  44.761439732142854 6.127485795454545  C 44.60239955357143 6.284919507575758  44.41406250000001 6.3636363636363615  44.19642857142857 7  L 10.446428571428571 7  C 10.228794642857144 6.3636363636363615  10.040457589285715 6.284919507575758  9.881417410714286 6.127485795454545  C 9.722377232142856 5.970052083333329  9.642857142857142 5.783617424242421  9.642857142857142 5.5681818181818175  L 9.642857142857142 0.7954545454545447  C 9.642857142857142 0.5800189393939365  9.722377232142856 0.39358428030302983  9.881417410714286 0.23615056818181712  C 10.040457589285715 0.07871685606060053  10.228794642857144 0  10.446428571428571 0  L 44.19642857142857 0  C 44.41406250000001 0  44.60239955357143 0.07871685606060053  44.761439732142854 0.23615056818181712  Z " fill-rule="nonzero" fill="#e6eaf2" stroke="none" transform="matrix(1 0 0 1 1663 31 )" />
  </g>
</svg>