<?xml version="1.0" encoding="utf-8"?>
<svg version="1.1" xmlns:xlink="http://www.w3.org/1999/xlink" width="25px" height="29px" xmlns="http://www.w3.org/2000/svg">
  <g transform="matrix(1 0 0 1 -37 -325 )">
    <path d="M 17.252604166666664 1.1004464285714295  L 23.893229166666664 7.703125  C 24.045138888888893 7.854166666666664  24.197048611111114 8.048363095238095  24.348958333333336 8.285714285714285  L 16.666666666666664 8.285714285714285  L 16.666666666666664 0.6473214285714295  C 16.905381944444446 0.798363095238094  17.100694444444446 0.9494047619047585  17.252604166666664 1.1004464285714295  Z M 15.0390625 9.904017857142856  C 15.342881944444445 10.206101190476188  15.711805555555555 10.357142857142856  16.145833333333336 10.357142857142856  L 25 10.357142857142856  L 25 27.44642857142857  C 25 27.87797619047619  24.848090277777775 28.244791666666664  24.544270833333336 28.546875  C 24.240451388888893 28.848958333333336  23.87152777777778 29  23.4375 29  L 1.5625 29  C 1.1284722222222223 29  0.7595486111111112 28.848958333333336  0.4557291666666667 28.546875  C 0.1519097222222222 28.244791666666664  0 27.87797619047619  0 27.44642857142857  L 0 1.5535714285714295  C 0 1.1220238095238089  0.1519097222222222 0.7552083333333323  0.4557291666666667 0.453125  C 0.7595486111111112 0.15104166666666774  1.1284722222222223 0  1.5625 0  L 14.583333333333334 0  L 14.583333333333334 8.803571428571429  C 14.583333333333334 9.235119047619044  14.735243055555555 9.601934523809524  15.0390625 9.904017857142856  Z M 18.603515625 22.640066964285715  C 18.701171875 22.54296875  18.75 22.41889880952381  18.75 22.267857142857142  L 18.75 21.232142857142858  C 18.75 21.08110119047619  18.701171875 20.95703125  18.603515625 20.859933035714285  C 18.505859375 20.76283482142857  18.381076388888893 20.714285714285715  18.229166666666664 20.714285714285715  L 6.770833333333333 20.714285714285715  C 6.618923611111112 20.714285714285715  6.494140625000002 20.76283482142857  6.396484375 20.859933035714285  C 6.298828125 20.95703125  6.25 21.08110119047619  6.25 21.232142857142858  L 6.25 22.267857142857142  C 6.25 22.41889880952381  6.298828125 22.54296875  6.396484375 22.640066964285715  C 6.494140625000002 22.73716517857143  6.618923611111112 22.785714285714285  6.770833333333333 22.785714285714285  L 18.229166666666664 22.785714285714285  C 18.381076388888893 22.785714285714285  18.505859375 22.73716517857143  18.603515625 22.640066964285715  Z M 18.603515625 18.49720982142857  C 18.701171875 18.400111607142858  18.75 18.276041666666664  18.75 18.125  L 18.75 17.089285714285715  C 18.75 16.938244047619047  18.701171875 16.814174107142858  18.603515625 16.717075892857142  C 18.505859375 16.61997767857143  18.381076388888893 16.57142857142857  18.229166666666664 16  L 6.770833333333333 16  C 6.618923611111112 16.57142857142857  6.494140625000002 16.61997767857143  6.396484375 16.717075892857142  C 6.298828125 16.814174107142858  6.25 16.938244047619047  6.25 17.089285714285715  L 6.25 18.125  C 6.25 18.276041666666664  6.298828125 18.400111607142858  6.396484375 18.49720982142857  C 6.494140625000002 18.594308035714285  6.618923611111112 18.642857142857142  6.770833333333333 18.642857142857142  L 18.229166666666664 18.642857142857142  C 18.381076388888893 18.642857142857142  18.505859375 18.594308035714285  18.603515625 18.49720982142857  Z M 18.603515625 14.354352678571429  C 18.701171875 14.257254464285715  18.75 14.133184523809524  18.75 13.982142857142856  L 18.75 12.946428571428571  C 18.75 12.795386904761903  18.701171875 12.671316964285715  18.603515625 12.57421875  C 18.505859375 12.477120535714285  18.381076388888893 12.428571428571429  18.229166666666664 13  L 6.770833333333333 13  C 6.618923611111112 12.428571428571429  6.494140625000002 12.477120535714285  6.396484375 12.57421875  C 6.298828125 12.671316964285715  6.25 12.795386904761903  6.25 12.946428571428571  L 6.25 13.982142857142856  C 6.25 14.133184523809524  6.298828125 14.257254464285715  6.396484375 14.354352678571429  C 6.494140625000002 14.451450892857144  6.618923611111112 14.5  6.770833333333333 14  L 18.229166666666664 14  C 18.381076388888893 14.5  18.505859375 14.451450892857144  18.603515625 14.354352678571429  Z " fill-rule="nonzero" fill="#e6eaf2" stroke="none" transform="matrix(1 0 0 1 37 325 )" />
  </g>
</svg>